<svg width="354" height="168" viewBox="0 0 354 168" fill="none" xmlns="http://www.w3.org/2000/svg">
<mask id="mask0_1044_1819" style="mask-type:alpha" maskUnits="userSpaceOnUse" x="0" y="0" width="354" height="168">
<path d="M0 18.6316C0 8.34164 8.34164 0 18.6316 0H335.368C345.658 0 354 8.34164 354 18.6316V149.368C354 159.658 345.658 168 335.368 168H18.6316C8.34165 168 0 159.658 0 149.368V18.6316Z" fill="url(#paint0_linear_1044_1819)"/>
</mask>
<g mask="url(#mask0_1044_1819)">
<path d="M0 18.6316C0 8.34164 8.34164 0 18.6316 0H335.368C345.658 0 354 8.34164 354 18.6316V149.368C354 159.658 345.658 168 335.368 168H18.6316C8.34165 168 0 159.658 0 149.368V18.6316Z" fill="url(#paint1_linear_1044_1819)"/>
<rect x="112" y="-120.769" width="268" height="268" rx="134" fill="#EC0D28"/>
<rect opacity="0.4" x="172" y="-166" width="268" height="268" rx="134" fill="#EF5265"/>
<path fill-rule="evenodd" clip-rule="evenodd" d="M31.4356 105.932V103.204C31.4356 97.0976 41.8469 93.3411 46.0265 99.5663C51.7987 96.8041 60.6223 98.1549 65.4997 101.972C68.6362 104.426 70.3066 106.184 72.0208 110.021C80.6718 129.393 57.4809 146.167 41.8493 134.655C39.4544 132.892 38.6034 131.939 36.8965 129.589C36.2036 128.634 35.5909 127.552 35.0754 126.403C32.4665 120.577 33.2567 116.794 34.6256 110.933C33.2324 110.004 31.4331 108.207 31.4331 105.93L31.4356 105.932ZM10.0051 118.211C10.0051 129.562 14.6539 140.163 21.9676 148.119C22.8867 149.119 23.5918 149.73 24.596 150.501C35.265 158.695 40.3054 161.414 56.0585 161.414C67.654 161.414 79.1205 154.381 84.9097 148.347C96.6535 136.11 100.549 116.717 93.444 100.929C86.8281 86.2282 72.0573 75 56.0585 75H51.0425C39.4471 75 27.9805 82.0328 22.1913 88.0665C14.8071 95.7613 10.0026 107.024 10.0026 118.206L10.0051 118.211Z" fill="#EE394E"/>
<path fill-rule="evenodd" clip-rule="evenodd" d="M10.0049 170.06C10.0049 180.527 15.7333 191.013 22.4294 197.69C26.4558 201.703 28.6028 203.435 34.0175 206.141C45.9023 212.083 60.5248 212.182 72.3221 206.294C86.1277 199.404 96.6387 185.525 96.6387 167.786H72.9275C72.9275 173.684 70.552 177.539 67.7826 180.847C63.5301 185.925 57.8211 186.888 51.4946 186.888C42.7488 186.888 33.7112 178.653 33.7112 167.786H10V170.06H10.0049Z" fill="#EE394E"/>
</g>
<defs>
<linearGradient id="paint0_linear_1044_1819" x1="177" y1="0" x2="340.739" y2="61.2499" gradientUnits="userSpaceOnUse">
<stop stop-color="#7564FD"/>
<stop offset="1" stop-color="#9083FD"/>
</linearGradient>
<linearGradient id="paint1_linear_1044_1819" x1="33" y1="15.7315" x2="331.5" y2="149.231" gradientUnits="userSpaceOnUse">
<stop stop-color="#EC0C27"/>
<stop offset="1" stop-color="#EF5265"/>
</linearGradient>
</defs>
</svg>
