<svg width="45" height="45" viewBox="0 0 45 45" fill="none" xmlns="http://www.w3.org/2000/svg">
<path d="M0 22.5893C0 12.0497 0 6.77992 3.27424 3.50568C6.54848 0.231445 11.8183 0.231445 22.3579 0.231445C32.8975 0.231445 38.1673 0.231445 41.4416 3.50568C44.7158 6.77992 44.7158 12.0497 44.7158 22.5893C44.7158 33.129 44.7158 38.3988 41.4416 41.673C38.1673 44.9472 32.8975 44.9472 22.3579 44.9472C11.8183 44.9472 6.54848 44.9472 3.27424 41.673C0 38.3988 0 33.129 0 22.5893Z" fill="#3EAC91" fill-opacity="0.1"/>
<path d="M27.9474 16.9995L16.7684 28.1785M16.7684 28.1785L16.7684 19.7942M16.7684 28.1785L25.1526 28.1785" stroke="#00BA88" stroke-width="1.39737" stroke-linecap="round" stroke-linejoin="round"/>
</svg>
