<svg width="19" height="18" viewBox="0 0 19 18" fill="none" xmlns="http://www.w3.org/2000/svg">
<path d="M7.8974 1.0054C7.8974 0.696113 7.70754 0.418543 7.41929 0.30642C7.13104 0.194296 6.80353 0.270614 6.59453 0.498607L1.09453 6.49861C0.893557 6.71786 0.841126 7.03515 0.960889 7.3074C1.08065 7.57965 1.34997 7.7554 1.6474 7.7554H17.6474C18.0616 7.7554 18.3974 7.41961 18.3974 7.0054C18.3974 6.59119 18.0616 6.2554 17.6474 6.2554L7.8974 6.2554V1.0054Z" fill="#EC0C27"/>
<path d="M11.3974 17.0054L11.3974 11.7554H1.6474C1.23319 11.7554 0.8974 11.4196 0.8974 11.0054C0.8974 10.5912 1.23319 10.2554 1.6474 10.2554L17.6474 10.2554C17.9448 10.2554 18.2141 10.4312 18.3339 10.7034C18.4537 10.9757 18.4012 11.2929 18.2003 11.5122L12.7003 17.5122C12.4913 17.7402 12.1638 17.8165 11.8755 17.7044C11.5873 17.5923 11.3974 17.3147 11.3974 17.0054Z" fill="#EC0C27"/>
</svg>
