<svg width="15" height="22" viewBox="0 0 15 22" fill="none" xmlns="http://www.w3.org/2000/svg">
<path fill-rule="evenodd" clip-rule="evenodd" d="M3.77427 5.02191V4.57945C3.77427 3.58912 5.46276 2.9799 6.1406 3.9895C7.07673 3.54153 8.50772 3.7606 9.29874 4.37965C9.80741 4.77767 10.0783 5.06281 10.3563 5.68501C11.7593 8.82669 7.99826 11.5471 5.46315 9.68015C5.07475 9.39422 4.93673 9.23966 4.65992 8.85855C4.54754 8.70359 4.44817 8.52818 4.36457 8.34175C3.94146 7.39705 4.06962 6.7835 4.29162 5.83289C4.06567 5.68226 3.77387 5.39083 3.77387 5.02152L3.77427 5.02191ZM0.298704 7.01319C0.298704 8.85422 1.05265 10.5733 2.23877 11.8638C2.38783 12.0258 2.50218 12.1249 2.66504 12.25C4.39533 13.5789 5.21276 14.0198 7.76758 14.0198C9.64811 14.0198 11.5077 12.8793 12.4466 11.9007C14.3512 9.91613 14.9829 6.77091 13.8307 4.21053C12.7577 1.82635 10.3622 0.00537109 7.76758 0.00537109H6.95409C5.07356 0.00537109 3.21394 1.14594 2.27505 2.12447C1.07749 3.37241 0.298309 5.19889 0.298309 7.0124L0.298704 7.01319Z" fill="#EC0C27"/>
<path fill-rule="evenodd" clip-rule="evenodd" d="M0.298671 15.4221C0.298671 17.1196 1.2277 18.8202 2.31366 19.903C2.96666 20.5539 3.31485 20.8347 4.19301 21.2737C6.12046 22.2372 8.49192 22.2534 10.4052 21.2984C12.6441 20.1811 14.3488 17.9302 14.3488 15.0532H10.5034C10.5034 16.0097 10.1181 16.6351 9.66897 17.1715C8.9793 17.9951 8.05343 18.1512 7.0274 18.1512C5.60902 18.1512 4.14332 16.8156 4.14332 15.0532H0.297882V15.4221H0.298671Z" fill="#EC0C27"/>
</svg>
