<svg width="25" height="24" viewBox="0 0 25 24" fill="none" xmlns="http://www.w3.org/2000/svg">
<path fill-rule="evenodd" clip-rule="evenodd" d="M12.0579 22.0054C17.5807 22.0054 22.0579 17.5282 22.0579 12.0054C22.0579 6.48252 17.5807 2.00537 12.0579 2.00537C6.53504 2.00537 2.05789 6.48252 2.05789 12.0054C2.05789 17.5282 6.53504 22.0054 12.0579 22.0054ZM12.8079 9.00537C12.8079 8.59116 12.4721 8.25537 12.0579 8.25537C11.6437 8.25537 11.3079 8.59116 11.3079 9.00537L11.3079 11.2554H9.05789C8.64368 11.2554 8.30789 11.5912 8.30789 12.0054C8.30789 12.4196 8.64368 12.7554 9.05789 12.7554H11.3079V15.0054C11.3079 15.4196 11.6437 15.7554 12.0579 15.7554C12.4721 15.7554 12.8079 15.4196 12.8079 15.0054L12.8079 12.7554H15.0579C15.4721 12.7554 15.8079 12.4196 15.8079 12.0054C15.8079 11.5912 15.4721 11.2554 15.0579 11.2554H12.8079V9.00537Z" fill="#EC0C27"/>
</svg>
