<svg width="27" height="28" viewBox="0 0 27 28" fill="none" xmlns="http://www.w3.org/2000/svg">
<path d="M2.20218 13.9788C2.20218 9.84626 2.20218 7.78001 3.48598 6.49621C4.76979 5.2124 6.83603 5.2124 10.9685 5.2124H15.3517C19.4842 5.2124 21.5505 5.2124 22.8343 6.49621C24.1181 7.78001 24.1181 9.84626 24.1181 13.9788C24.1181 18.1113 24.1181 20.1775 22.8343 21.4613C21.5505 22.7451 19.4842 22.7451 15.3517 22.7451H10.9685C6.83603 22.7451 4.76979 22.7451 3.48598 21.4613C2.20218 20.1775 2.20218 18.1113 2.20218 13.9788Z" stroke="#A7A7A7" stroke-width="1.40888"/>
<path d="M10.9685 18.3623H6.58536" stroke="#A7A7A7" stroke-width="1.40888" stroke-linecap="round"/>
<path d="M15.3517 18.3623H13.708" stroke="#A7A7A7" stroke-width="1.40888" stroke-linecap="round"/>
<path d="M2.20218 11.7876L24.1181 11.7876" stroke="#A7A7A7" stroke-width="1.40888" stroke-linecap="round"/>
</svg>
