<svg width="27" height="28" viewBox="0 0 27 28" fill="none" xmlns="http://www.w3.org/2000/svg">
<path d="M2.89069 7.95202C2.89069 5.53126 4.8531 3.56885 7.27386 3.56885C9.69463 3.56885 11.657 5.53126 11.657 7.95202C11.657 10.3728 9.69463 12.3352 7.27386 12.3352C4.8531 12.3352 2.89069 10.3728 2.89069 7.95202Z" stroke="#A7A7A7" stroke-width="1.40888"/>
<path d="M14.9444 20.0062C14.9444 17.5855 16.9068 15.623 19.3276 15.623C21.7483 15.623 23.7108 17.5855 23.7108 20.0062C23.7108 22.427 21.7483 24.3894 19.3276 24.3894C16.9068 24.3894 14.9444 22.427 14.9444 20.0062Z" stroke="#A7A7A7" stroke-width="1.40888"/>
<path d="M23.7108 7.95203C23.7108 5.88578 23.7108 4.85265 23.0689 4.21075C22.427 3.56885 21.3939 3.56885 19.3276 3.56885C17.2614 3.56885 16.2282 3.56885 15.5863 4.21075C14.9444 4.85265 14.9444 5.88578 14.9444 7.95203C14.9444 10.0183 14.9444 11.0514 15.5863 11.6933C16.2282 12.3352 17.2614 12.3352 19.3276 12.3352C21.3939 12.3352 22.427 12.3352 23.0689 11.6933C23.7108 11.0514 23.7108 10.0183 23.7108 7.95203Z" stroke="#A7A7A7" stroke-width="1.40888"/>
<path d="M11.657 20.0058C11.657 17.9395 11.657 16.9064 11.0151 16.2645C10.3732 15.6226 9.34011 15.6226 7.27386 15.6226C5.20761 15.6226 4.17449 15.6226 3.53259 16.2645C2.89069 16.9064 2.89069 17.9395 2.89069 20.0058C2.89069 22.072 2.89069 23.1051 3.53259 23.747C4.17449 24.3889 5.20761 24.3889 7.27386 24.3889C9.34011 24.3889 10.3732 24.3889 11.0151 23.747C11.657 23.1051 11.657 22.072 11.657 20.0058Z" stroke="#A7A7A7" stroke-width="1.40888"/>
</svg>
