<svg width="27" height="28" viewBox="0 0 27 28" fill="none" xmlns="http://www.w3.org/2000/svg">
<path d="M6.91003 9.59619H11.2932" stroke="#EC0C27" stroke-width="1.40888" stroke-linecap="round" stroke-linejoin="round"/>
<path d="M23.1643 10.6919H20.3124C18.3572 10.6919 16.7722 12.1637 16.7722 13.9793C16.7722 15.7948 18.3572 17.2667 20.3124 17.2667H23.1643C23.2556 17.2667 23.3013 17.2667 23.3398 17.2643C23.9308 17.2283 24.4015 16.7913 24.4402 16.2425C24.4427 16.2067 24.4427 16.1643 24.4427 16.0795V11.879C24.4427 11.7942 24.4427 11.7518 24.4402 11.716C24.4015 11.1673 23.9308 10.7302 23.3398 10.6942C23.3013 10.6919 23.2556 10.6919 23.1643 10.6919Z" stroke="#EC0C27" stroke-width="1.40888"/>
<circle cx="20.0593" cy="13.9791" r="1.09579" fill="#EC0C27"/>
<path d="M23.3083 10.6914C23.2231 8.63972 22.9484 7.3818 22.0628 6.4962C20.779 5.2124 18.7128 5.2124 14.5803 5.2124L11.2929 5.2124C7.16041 5.2124 5.09416 5.2124 3.81035 6.49621C2.52655 7.78001 2.52655 9.84626 2.52655 13.9788C2.52655 18.1113 2.52655 20.1775 3.81035 21.4613C5.09416 22.7451 7.16041 22.7451 11.2929 22.7451H14.5803C18.7128 22.7451 20.779 22.7451 22.0628 21.4613C22.9484 20.5757 23.2231 19.3178 23.3083 17.2661" stroke="#EC0C27" stroke-width="1.40888"/>
</svg>
