<svg width="215" height="68" viewBox="0 0 215 68" fill="none" xmlns="http://www.w3.org/2000/svg">
<path fill-rule="evenodd" clip-rule="evenodd" d="M11.3877 17.6352V16.329C11.3877 13.4054 16.9184 11.6068 19.1387 14.5873C22.205 13.2649 26.8922 13.9116 29.4832 15.7391C31.1494 16.9142 32.0367 17.756 32.9473 19.5928C37.5429 28.8676 25.2235 36.8988 16.9197 31.3872C15.6474 30.543 15.1954 30.0867 14.2887 28.9616C13.9206 28.5042 13.5951 27.9863 13.3212 27.436C11.9353 24.647 12.3551 22.8357 13.0823 20.0294C12.3422 19.5847 11.3864 18.7243 11.3864 17.634L11.3877 17.6352ZM0.00339733 23.5138C0.00339733 28.9489 2.47297 34.024 6.35814 37.8335C6.84637 38.3119 7.22094 38.6045 7.75438 38.9737C13.422 42.897 16.0995 44.1986 24.4679 44.1986C30.6276 44.1986 36.7189 40.8315 39.7942 37.9427C46.0327 32.0838 48.1019 22.7986 44.3278 15.2399C40.8133 8.20135 32.9667 2.8255 24.4679 2.8255H21.8033C15.6436 2.8255 9.55231 6.19266 6.47697 9.08145C2.55434 12.7656 0.00210571 18.1577 0.00210571 23.5115L0.00339733 23.5138Z" fill="#EC0C27"/>
<path fill-rule="evenodd" clip-rule="evenodd" d="M0.00258323 48.3381C0.00258323 53.3494 3.04563 58.3699 6.60274 61.5664C8.74165 63.488 9.88215 64.317 12.7586 65.6128C19.072 68.4575 26.8398 68.5051 33.1067 65.686C40.4405 62.3873 46.0241 55.7424 46.0241 47.249H33.4283C33.4283 50.0728 32.1664 51.9189 30.6952 53.5027C28.4362 55.934 25.4035 56.3949 22.0427 56.3949C17.3968 56.3949 12.5958 52.4519 12.5958 47.249H0V48.3381H0.00258323Z" fill="#EC0C27"/>
<path fill-rule="evenodd" clip-rule="evenodd" d="M206.211 22.4277H195.553C195.789 19.8803 197.98 18.3999 201.003 18.199C203.787 18.0144 206.145 19.8153 206.211 22.4277ZM200.882 37.8876C204.27 37.8876 206.004 37.8075 209.128 36.3724C210.262 35.8511 212.563 34.2174 213.236 33.3153C212.647 32.5257 208.725 30.034 207.666 29.3954C205.723 30.5646 205.215 32.2262 201.61 32.2262C198.179 32.2262 196.208 30.1745 195.555 27.6538H214.691C214.691 23.1081 214.381 19.6794 211.583 16.512C206.605 10.8784 196.352 12.0627 191.736 15.9465C190.363 17.1018 189.584 17.9076 188.689 19.5227C186.107 24.1833 186.807 30.214 190.884 34.0316C192.793 35.8197 197.076 37.8888 200.885 37.8888L200.882 37.8876Z" fill="#EC0C27"/>
<path fill-rule="evenodd" clip-rule="evenodd" d="M115.86 16.3308V13.2818H107.866V37.4522H116.102V25.9121C116.102 20.7453 117.559 19.3798 121.672 19.3798C123.008 19.3798 124.212 20.3401 124.652 21.2736C125.703 23.5006 125.306 34.4821 125.306 37.4534H133.541V22.6472C133.541 19.5877 132.783 17.1506 131.268 15.3276C129.928 13.7137 126.883 12.6316 123.851 12.6316C119.73 12.6316 117.778 14.3477 115.857 16.3331L115.86 16.3308Z" fill="#EC0C27"/>
<path fill-rule="evenodd" clip-rule="evenodd" d="M84.129 30.4844C84.129 26.7399 90.3016 26.7829 94.0602 26.7829V28.5245C94.0602 33.5462 84.129 34.0803 84.129 30.4844ZM77.8311 16.3307C78.1565 17.4268 79.9325 18.4044 81.0381 19.5446C81.507 20.03 81.6181 20.34 82.1916 20.6848C83.8603 19.6805 84.7425 17.8541 89.2154 17.8541C91.8167 17.8541 94.0021 19.6468 94.0602 21.9911C87.9522 21.9911 76.1352 22.3742 76.1352 29.8296C76.1352 31.4818 76.0151 32.4606 76.9579 33.8806C79.288 37.3871 82.2794 37.8864 86.7936 37.8864C90.9681 37.8864 92.8693 35.3366 94.0602 34.6202C94.0602 38.0907 92.8009 37.451 101.085 37.451C101.643 37.451 101.812 37.3 101.812 36.7973V24.3852C101.812 20.967 100.95 17.5116 99.0911 15.7258C97.864 14.5485 97.1536 14.0701 95.3079 13.4652C85.7913 10.3442 78.5841 16.1485 77.8311 16.3284V16.3307Z" fill="#EC0C27"/>
<path fill-rule="evenodd" clip-rule="evenodd" d="M140.325 27.8719C140.325 33.0132 142.648 37.8887 148.803 37.8887C156.302 37.8887 155.896 35.7952 158.007 34.4042C158.007 38.1673 156.53 37.4521 166.001 37.4521V13.2817H157.765V25.2583C157.765 31.2461 153.566 32.2887 150.611 30.8188C149.935 30.4832 149.582 29.9886 149.277 29.4057C148.131 27.2113 148.561 16.3075 148.561 13.2828H140.326V27.8719H140.325Z" fill="#EC0C27"/>
<path fill-rule="evenodd" clip-rule="evenodd" d="M172.783 36.7996C172.783 37.3012 172.951 37.4533 173.51 37.4533H180.534C181.092 37.4533 181.261 37.3023 181.261 36.7996V0H172.783V36.7996Z" fill="#EC0C27"/>
<path fill-rule="evenodd" clip-rule="evenodd" d="M62.3291 16.9844V13.2828H54.0937V37.4533H62.3291C62.3291 34.1813 62.0901 25.1144 63.0188 22.6134C64.7754 17.8889 70.8163 19.6537 72.9862 19.8151C72.9862 12.9844 73.8438 12.6292 70.3216 12.6292C67.2049 12.6292 65.642 13.5557 63.8377 15.2927C63.1957 15.9104 62.98 16.5536 62.3278 16.9844H62.3291Z" fill="#EC0C27"/>
</svg>
