<svg width="29" height="46" viewBox="0 0 29 46" fill="none" xmlns="http://www.w3.org/2000/svg">
<path fill-rule="evenodd" clip-rule="evenodd" d="M7.14344 11.102V10.1928C7.14344 8.1579 10.613 6.90606 12.0058 8.98061C13.9294 8.06011 16.8698 8.51026 18.4952 9.7823C19.5405 10.6002 20.0971 11.1861 20.6684 12.4646C23.5513 18.9202 15.823 24.5102 10.6138 20.6739C9.81569 20.0863 9.5321 19.7687 8.96329 18.9856C8.73237 18.6672 8.52818 18.3068 8.35641 17.9237C7.487 15.9825 7.75033 14.7218 8.20651 12.7685C7.74223 12.4589 7.14263 11.8601 7.14263 11.1012L7.14344 11.102ZM0.00178683 15.1937C0.00178683 18.9767 1.55101 22.5092 3.98828 25.1608C4.29456 25.4937 4.52954 25.6974 4.86417 25.9544C8.41961 28.6852 10.0993 29.5911 15.349 29.5911C19.2131 29.5911 23.0343 27.2474 24.9636 25.2367C28.8771 21.1588 30.1752 14.6959 27.8076 9.43479C25.6029 4.53573 20.6805 0.793945 15.349 0.793945H13.6774C9.81326 0.793945 5.99206 3.13761 4.06282 5.14831C1.60206 7.7126 0.000976562 11.4657 0.000976562 15.1921L0.00178683 15.1937Z" fill="white"/>
<path fill-rule="evenodd" clip-rule="evenodd" d="M0.00162053 32.4722C0.00162053 35.9602 1.9106 39.4547 4.14206 41.6796C5.48386 43.0171 6.19932 43.5941 8.00378 44.496C11.9643 46.476 16.8373 46.5092 20.7687 44.5469C25.3693 42.251 28.8721 37.6259 28.8721 31.7142H20.9704C20.9704 33.6796 20.1788 34.9646 19.2559 36.0669C17.8388 37.7592 15.9363 38.08 13.828 38.08C10.9134 38.08 7.90169 35.3355 7.90169 31.7142H0V32.4722H0.00162053Z" fill="white"/>
</svg>
